<?xml version="1.0" encoding="utf-8"?>
<svg viewBox="4.95 2.85 38.15 42.25" xmlns="http://www.w3.org/2000/svg">
  <path d="M9.5 45.1q-1.85 0-3.2-1.375T4.95 40.55V10.5q0-1.9 1.35-3.25T9.5 5.9h2.95V2.85h3.95V5.9h15.2V2.85h3.95V5.9h2.95q1.9 0 3.25 1.35t1.35 3.25v30.05q0 1.8-1.35 3.175Q40.4 45.1 38.5 45.1Zm0-4.55h29V19.6h-29v20.95Z" style="fill: rgb(33, 150, 243);"/>
  <path d="M 11.813 37.438 L 23.452 37.438 L 23.452 34.188 L 17.317 34.188 L 17.317 34.107 L 19.978 31.954 C 22.334 30.054 23.279 28.958 23.279 26.997 L 23.279 26.977 C 23.279 24.286 20.963 22.518 17.419 22.518 C 13.945 22.518 11.559 24.529 11.559 27.505 L 11.559 27.607 L 15.479 27.607 L 15.489 27.475 C 15.57 26.418 16.251 25.697 17.419 25.697 C 18.434 25.697 19.135 26.337 19.135 27.241 L 19.135 27.261 C 19.135 28.074 18.81 28.714 17.013 30.197 L 11.813 34.503 Z M 31.438 37.438 L 35.501 37.438 L 35.501 35.112 L 37.299 35.112 L 37.299 31.811 L 35.501 31.811 L 35.501 22.783 L 29.549 22.783 L 24.227 31.649 L 24.227 35.112 L 31.438 35.112 Z M 27.752 31.984 L 27.752 31.862 L 31.479 25.657 L 31.56 25.657 L 31.56 31.984 Z" style="fill: rgb(33, 150, 243); white-space: pre;"/>
</svg>